# xmcd CD database file
# Copyright (C) 1993-1998 Ti Kan
# 
# Track frame offsets:
#     150
#     14475
#     27525
#     42075
#     63470
#     86945
#     105170
#     119717
# 
# Disc length: 1815 seconds
# 
# Revision: 2
# Processed by: cddbd v1.4b41PL1 Copyright (c) Steve Scherf et al.
# Submitted via: DiscPlay 4.0.4
# 
DISCID=69071508
DTITLE=John Denver - Take Me Home Country Roads  and Other Hits
DYEAR=1900
DGENRE=
TTITLE0=Take Me Home, Country Roads
TTITLE1=Follow Me
TTITLE2=Starwood In Aspen
TTITLE3=Rocky Mountain High
TTITLE4=Sunshine On My Shoulders
TTITLE5=Leaving, On A Jet Plane
TTITLE6=Rhymes And Reasons
TTITLE7=Goodbye Again
EXTD=
EXTT0=
EXTT1=
EXTT2=
EXTT3=
EXTT4=
EXTT5=
EXTT6=
EXTT7=
PLAYORDER=
